<?xml version="1.0" encoding="utf-8"?>
<!-- Generator: Adobe Illustrator 21.0.2, SVG Export Plug-In . SVG Version: 6.00 Build 0)  -->
<svg version="1.1" id="Isolation_Mode" xmlns="http://www.w3.org/2000/svg" xmlns:xlink="http://www.w3.org/1999/xlink" x="0px"
	 y="0px" viewBox="0 0 303.9 202.6" style="enable-background:new 0 0 303.9 202.6;" xml:space="preserve">
<style type="text/css">
	.st0{fill-rule:evenodd;clip-rule:evenodd;fill:#E3000F;}
	.st1{fill-rule:evenodd;clip-rule:evenodd;fill:#FFFFFF;}
	.st2{fill:#FFFFFF;}
	.st3{fill:#E3000F;}
</style>
<g>
	<g>
		<path class="st0" d="M151.4,41.4c75.1,0,136,34.1,136,76.1c0,42-60.9,76.1-136,76.1c-75.1,0-136-34.1-136-76.1
			C15.4,75.5,76.3,41.4,151.4,41.4z"/>
	</g>
	<g>
		<path class="st1" d="M150.2,38.7c76.9,0,139.3,34.7,139.3,77.5c0,12.1-5,23.6-13.9,33.8c5.5-7.3,8.9-15.3,9.7-23.9
			c3.6-40.5-52.8-77.3-125.9-82.2C86.2,39,24,67.9,20.4,108.4c-3.6,40.5,52.8,77.3,125.9,82.2c24.5,1.6,47.8-0.5,68.1-5.6
			c-19.2,5.6-41.1,8.7-64.2,8.7C73.3,193.7,11,159,11,116.2C11,73.4,73.3,38.7,150.2,38.7z"/>
	</g>
	<g>
		<path class="st2" d="M232.2,95.8c0.3-17.5-24.8-18.5-25.9-14.8c-1.1,3.7,0.2,23.3,0.3,26.4C206.9,113.3,232,113.3,232.2,95.8
			 M222.8,124.3c-5.4-5.5-9.9-7.9-15.3-7.4c-0.4,7.7,0.9,22.6,1.8,24.9c2.8,7.2,11.8-1.9,13.6,9.4c-12.9,1.6-26.1-1.5-40.2,2.2
			c1.8-14.3,12-0.2,13.9-17.9c0.6-5.4,0.1-17.5,0.1-29.9c0-8.2-0.3-15.4-0.9-19.3c-1.3-8.8-9.3-6-9.3-10.2c5.5,0,39.3-6.1,49.6,4.5
			c10,10.4,7.6,34.7-11.7,36.1c8.5,4.8,10.7,6.9,18.6,17.6c16.1,22,38.1,16.1,42.2-7.6c-2.7,32.3-37,42.4-49.4,17.9
			C230.7,134.7,225.5,127.1,222.8,124.3z M166.3,115.4c0,0.7,0.1,1.3,0.4,1.5c4.9,0,9.6,0.1,14.5,0.3c0.9-2.3,0.2-13.3-6.8-13.7
			C168.4,103.3,166.3,110.8,166.3,115.4z M156.2,119.9c0-28.6,33.9-26,34.1-1.2c0,5-24.1-0.9-24.3,3.1
			c-0.6,14.8,10.3,24.1,18.4,11.8c1.2-1.8,3.5-1.4,5.4-1.4C184.4,152.3,156.2,148.5,156.2,119.9z M140.8,128l0.2-12.6
			c0.1-5.5-1.8-9-5.2-9.8c-8-2-14,6.7-12.8,20.4c0.4,4.8,2.2,9,5.4,11.2C133.4,140.6,140.8,137,140.8,128z M162.6,147.6
			c-9.3,0.2-16.7-5.1-19-11c-3.3,5.3-9,8.3-14.4,8.3c-10.5,0-18.9-12.5-14.6-30.9c2.6-9,8.1-13.6,14.9-13.6c3.2,0,6.1,1.1,8.6,3.2
			c1,1.2,1.6,1.8,1.9,1.8c0.3,0,0.5-0.1,0.5-0.2l0-26.6c0.3-3.1-7.4,1.2-7.5-3.2c3.5-0.9,6.4-2.3,9.5-4c3.8-2.1,7.9-6.8,9.9-5.9
			c-0.8,4.3-2.7,9.3-2.4,21.1l0.4,39C150.6,135.6,155.6,144.6,162.6,147.6z M112.3,143.4c-1.8,1.2-17.7-1.6-20.4,0.6
			c-0.2-5.2,4.2-5.8,6.2-8.6c0.7-3.7,1.5-17.3,0.3-23.3c-0.5-2.4-1.5-4.4-3.1-5.9v-1.4c5.9-2.1,9.9-5.8,12-11.2
			c3.1,1.3,0.2,8.5,0.1,17.3l-0.2,21.9C107.8,141.6,111.9,137.8,112.3,143.4z M107.6,86.9c-0.3,8.7-10.8,9.5-11.8,1
			c-0.6-4.8,3.9-9,6.9-8.2C105,80.3,107.7,82.4,107.6,86.9z M115.7,171.4c-12.9,4.6-24.8-21.3-45.9-8.2c-1,0.6-2.1-1.7-3.4-3
			c8.4,0.3,9-14.1,9-22c0,1.2-0.1-12.3-0.4-40.4c0-3.6-0.1-10-0.3-19.2c-0.4-3.8-5.9-2.5-4.7-8.4l21.5-0.4c1.6,6.5-6.3,2.9-6.1,11.3
			l0.7,51.6c-0.3,9.5-0.6,13.5-2.5,20c11.3-1.3,20.9,8.1,30.2,3.3c3.7-1.9,5.6-4.6,5.6-8.2c0-0.9-0.1-1.7-0.4-2.3
			c0.2-0.8,0.6-1.3,1.3-1.2C126.6,144.7,129.4,166.2,115.7,171.4z"/>
	</g>
	<g>
		<path class="st3" d="M28.9,52.2c-0.9-0.6-2.6-1.5-4.4-2.3c2.1-5.3,4-11.5,4.1-14.2c0.2-2.2-0.5-3.5-1.1-3.9
			c-0.5-0.4-1-0.3-1.1,0.4c-0.7,4.9-2.6,10.4-4.4,15.4c-0.1-2.2-0.1-2.7-0.3-5.6c-0.1-1.8-0.6-3.1-1.1-3.9c-0.3-0.5-0.8-0.9-1.2-1.1
			c-0.8-0.4-1.2-0.2-1.3,0.7c-0.2,3.8,1.1,17.3,1.9,20.3c0.3,0.8,0.6,1.5,0.9,2c0.4,0.7,1,1.1,1.5,1.3c0.8,0.3,1.1-0.1,1-0.8
			c-0.5-2.7-0.8-5.4-1-7.9c2.5,1,4.9,2.3,7.4,3.8c0.7,0.4,1.1,0,1.2-0.6c0-0.5-0.1-1.3-0.5-1.9C30.3,53.4,29.7,52.7,28.9,52.2z"/>
		<path class="st3" d="M184.2,21.6c-0.3,0-0.4,0.1-0.6,0.3c-1.5,2.3-3.5,4.5-4.7,4.4c-0.4,0-0.6-0.6-0.5-1.3c0.1-0.9,0.6-1.9,1-2.7
			c0.5-1,1.3-2.2,2.5-4.2c0.8-1.3,1.2-2,1.3-2.9c0-0.5-0.2-2.2-1.1-2.2c-0.2,0-0.5,0.1-0.7,0.2c-0.3,0.3-0.5,0.5-0.8,1
			c-0.4-1-1.4-1.7-2.7-1.8c-2.1-0.2-3.7,0.4-5.4,1.9c-1.1,1-1.6,2.5-1.7,3.3c-0.1,1.5,0.4,3.6,3.7,3.6c-1.7,1.7-2.4,2.3-3.4,3
			c-0.8,0.5-1.4,0.9-1.6,0.9c-0.1,0-0.2-0.3-0.1-0.6c0.1-1.4,1-2.8,1.5-3.6c0.1-0.2,0.2-0.3,0.2-0.4c0-0.2-0.2-0.6-1.1-0.7
			c-0.4,0-0.9,0-1.4,0.3c-0.2-0.2-0.5-0.1-0.8,0.4c-1.3,2.3-3.1,4.7-4.4,4.7c-0.4,0-0.5-0.3-0.5-0.9c0.1-2.4,3.2-6.3,4.2-8.2
			c1-1.9,0.7-3.5,0.1-4.2c-0.4-0.5-1-0.5-1.5,0.2l-0.7,1.1c-0.3-0.9-1.1-1.6-2.4-1.7c-1.8-0.1-4.9,1.6-7.9,5.6
			c-0.6,0.8-1.1,1.6-1.4,2.4c-0.1,0.1-0.2,0.2-0.2,0.4c-1,2.1-2.7,4.9-4,4.7c-1.2-0.1-2-2-2.2-4.7c3.7-1.7,5.3-3.5,6.5-5.6
			c0.2-0.4,0.4-1,0.4-1.4c0-1.3-0.9-1.9-1.8-0.9c-2.2,2.7-4.6,4.8-7.5,5.9c-0.2,0.1-0.3,0.1-0.4,0.2c0.6-1.2,1.1-2,1.3-2.6
			c0.4-0.8,0.5-1.4,0.5-1.9c0-0.5-0.2-0.9-0.4-1.4c-0.4-1.1-1.1-0.9-1.6-0.2c-2.6,3.7-3.6,5.7-4.4,8.2c-1.3,2.2-3.6,4.9-6.2,5
			c-1,0-1.7-0.9-1.8-2.5c-0.1-1.1,0.2-2.6,0.8-4.1c1.3-3,3.5-5.5,3.9-5.2c0.2,0.1-0.1,0.8-0.4,1.5c-0.6,1.5-0.7,2.2-0.7,2.7
			c0.1,1,0.7,1.6,1.4,2c0.7,0.3,1.1,0.2,1.3-0.5c0.1-0.4,0.3-1,0.6-1.5c0.6-1.4,1.1-2.8,0.5-4c-0.6-1-2.2-2.2-3.6-2.1
			c-2.1,0.1-4.8,2.2-6.5,6.1c-0.5,1-0.7,2-0.8,3c0,0,0,0,0,0.1c-0.8,2.2-2.6,4.8-5.2,5.6c1.1-1.1,2.1-2.8,2.7-4.9
			c0.7-1.8,1-3.7,0.9-5.2c-0.2-1.8-1.4-3.7-3.6-3.5c-1,0.1-2,0.7-2.8,1.4c0-0.5-0.2-0.9-0.5-1.3s-0.8-0.5-1.4,0.4
			c-0.9,1.5-2.4,4.8-3.8,8.3c-0.1,0.1-0.2,0.2-0.3,0.4c-1.1,2.4-3.1,5.4-5.9,5.8c-1.1,0.2-1.9-0.9-2.1-2.4c-0.1-0.6-0.1-1.4,0-2.2
			c0.9,0.4,1.8,0.5,2.7,0.4c3.1-0.5,5-4.6,4.7-6.7c-0.1-0.5-0.3-1-0.6-1.3c-0.6-0.6-1.4-1.1-2.5-1.5c-0.4-0.2-0.8-0.2-1.3-0.1
			c-2.1,0.3-4.7,2.6-6,6.7c-0.3,1-0.5,1.9-0.6,2.8c0,0,0,0.1-0.1,0.1c-0.9,2.4-2.1,5.3-3.2,5.5c-0.6,0.1-1-0.4-1.2-1.2
			c-0.3-1.2,0.3-3,1-4.7c1-2.5,1.4-4.3,1.1-5.5c-0.2-1.2-1-2-2-1.8c-1.1,0.2-2.8,1.8-4.1,3.5c-0.3-1.5-1.3-2.6-2.5-2.4
			c-1.1,0.2-2.8,2-4,3.8c0-0.4,0-0.7-0.1-1c-0.1-0.6-0.4-1.1-0.9-1.6c-0.5-0.6-1-0.5-1.3,0.3c-1.1,2.7-2.2,6.4-2.8,9
			c-0.1,0.1-0.1,0.2-0.2,0.4c-0.6,2.5-1.7,5.5-2.9,5.8c-0.5,0.1-0.8-0.2-0.9-0.8c-0.4-1.4,0.3-4.1,0.8-6c0.6-2.4,0.9-4.1,0.6-5.3
			c-0.2-0.8-0.6-1.3-1-1.7c-0.6-0.5-1.1-0.2-1.4,0.6c-0.8,2-1,4.6-2.1,8.5c-1,3.3-2.1,6.2-3.1,6.4c-0.8,0.2-1-1.1-0.8-2.7
			c0.5-3,1.8-7.8,1.4-9.2c-0.1-0.5-0.5-1.1-1-1.5c-0.6-0.4-1.2-0.3-1.5,0.4c-1.2,3.2-1.9,6.8-2.1,9.2c0,0,0,0.1,0,0.1
			c-0.7,2.3-1.9,4.3-3.5,6.4c0.2-3,0.7-6,1-8.5c0.2-2,0.3-3.1,0-4c-0.3-0.7-0.7-1.3-1.2-1.5c-0.6-0.4-1.2-0.2-1.4,0.8
			c-0.1,0.4-0.2,0.9-0.2,1.1c-0.6-0.7-1.6-1.1-2.7-0.7c-3.1,1.1-6.4,7.6-5.7,12.4c-0.3,2.3-1.2,4.5-2.2,4.9
			c-0.3,0.1-0.6-0.1-0.8-0.6c-0.5-1.1-0.5-3.4-0.1-6.1c0.2-2.2,0.3-3.8-0.2-4.9c-0.3-0.7-0.8-1.2-1.3-1.4c-0.6-0.3-1-0.1-1.2,0.8
			c-0.3,1.3-0.5,3.5-0.7,5.6c-0.8,0.7-1.7,1.4-2.7,2.1c0.1-1,0.2-2,0.3-2.8c0.1-0.7,0-1.3-0.3-1.9c-0.3-0.6-0.7-1.2-1.3-1.5
			c-0.6-0.5-1.1-0.3-1.3,0.5c-0.4,2.4-0.8,5.5-1,8.1c-0.9,0.5-0.8,2.5-0.1,2.3c0,0.6,0,1.1,0,1.5c0,0,0,0,0,0.1
			c-0.2,1.2-0.5,2.3-1.3,2.7C40.7,48,40.4,48,40.3,48c0.3-1.4,0.7-4.8-1-8c-0.7-1.3-1.4-1.5-2.3-1.8c-0.3-0.1-0.5-0.2-0.8-0.3
			c-1.1-0.5-1.8-0.8-3.1-0.2c-2.9,1.5-4,8.8-2.1,12.4c0.5,1,1.3,1.8,2.3,2.3c1.5,0.7,3,0.5,4,0c0.4-0.2,0.8-0.6,1-0.8
			c0.6-0.7,0.9-1.2,1.2-1.9c0.6,0.1,1.4-0.1,2.2-0.5c0.6-0.3,1-0.7,1.4-1.2c0.2,0.2,0.5,0.4,0.8,0.5c0.8,0.3,1.1-0.1,1.1-0.7
			c0-1.9,0.2-4.2,0.3-6.4c0.9-0.6,1.9-1.3,2.8-2c0,0.6,0,1.1,0,1.6c0.1,1,0.2,1.7,0.5,2.4c0.7,1.7,2.2,2.4,4.1,1.5
			c1.3-0.6,2.6-1.9,3.3-3.4c0.8,0.8,2,1.1,3.2,0.7c0.9-0.3,1.7-1,2.2-1.8l0,1.3c-3.6,2.9-5.7,7.6-4.6,10.7c0.4,1.1,1.2,1.8,1.9,2.3
			c1.1,0.7,2,0.5,2.7-0.1c2.3-2.3,2.9-8.3,3.2-13.4c1.8-1.5,3.3-3.1,4.1-4.8c0.5,1.1,1.5,1.8,3,1.4c1.8-0.5,3-2,3.8-3.7
			c0.6,1.5,1.9,2.2,4,1.7c1.1-0.3,2.1-1.1,2.9-2.2c0.2,0.3,0.5,0.5,0.7,0.6c0.7,0.4,1.1,0.1,1.2-0.5c0.7-3.5,1.6-7.1,3.2-9.6
			c1.6-2.8,2.8-3.8,3.1-3.9c0.3-0.1-0.4,1.5-1,3.3c-0.6,1.7-1.4,3.8-1.6,5.2c-0.2,1-0.2,2.1-0.1,2.8c0.2,0.9,0.5,1.4,1.2,1.8
			c0.7,0.4,1.2,0.2,1.4-0.5c0.8-3.6,1.8-7.3,4-10.7c1.6-2.5,2.3-3,2.6-3.1c0.3-0.1-0.3,1.2-0.9,2.5c-0.5,1.4-1.3,3.6-1.6,4.9
			c-0.2,1-0.2,1.8,0,2.4c0.4,1.9,2,2.9,4.4,2.4c1.7-0.4,3.4-1.9,4.3-3.6c1,1.6,2.7,2.4,5.1,2.1c1.3-0.2,2.5-0.8,3.5-1.5
			c-0.6,1.7-1,3.1-1.2,4c-0.2,1-0.3,1.8-0.2,2.4c0.1,0.8,0.3,1.2,0.9,1.9c0.4,0.4,0.8,0.2,1-0.5c1.2-3.7,2.4-6.9,3.7-10
			c1,1.9,2.9,2.6,5.7,2.4c2.6-0.3,5.2-1.3,6.7-3.7c0.8,1.6,2.5,2.6,4.9,2.5c1.9-0.1,3.7-1,5.1-2.3c0.1,0.6,0.3,1,0.6,1.4
			c0.4,0.5,1.1,0.3,1.3-0.2c1.2-2.9,2.2-5,3-6.5c0,4.9,2.3,6.9,5,6.9c1.9,0,3.3-1,4.3-2.1c0.4,1.3,1.4,2.2,3,2.2c1.4,0,3.1-1,4.2-2
			c0.2,1.3,1.3,2.3,3.1,2.4c1.2,0,2.5-0.5,3.6-1.4c0.4,1,1.3,1.5,2,1.5c0.9,0.1,1.9-0.1,2.9-0.7c1.3-0.8,2.7-2,4-3.4
			c-0.3,0.6-0.5,1.2-0.5,1.7c-0.2,1.9,0.8,3.1,3.2,3.3c2.2,0.2,4.8-1.6,6-3.4C185.1,23.3,184.9,21.7,184.2,21.6z M110.7,16.3
			c0.4,0.3-0.1,2.1-0.9,3.6c-0.6,1.1-1.6,2.3-2.4,2.4c-0.3,0-0.5,0-0.8-0.1C107.8,18.6,110.1,16,110.7,16.3z M35.7,51.3
			c-0.6,0.3-1.1-0.5-1.4-1c-0.7-1.2-0.9-2.7-1-4.2c0.6,1.2,2,2.3,3.7,3C36.8,50.1,36.3,51,35.7,51.3z M37.4,47
			c-0.9-0.6-1.5-1.6-1.9-2.3c-1.3-2.5-0.5-5,0.1-5.3c0.1-0.1,0.5,0.7,0.6,0.9C37.4,42.5,37.5,45.5,37.4,47z M61.1,49.4
			c-0.4,2.2-0.9,3.5-1.3,3.4c-0.4-0.2-0.6-1.9-0.2-4c0.3-1.4,0.9-3,2-4.6C61.5,46.2,61.3,48,61.1,49.4z M62.1,34.2
			c-0.6,3.5-1.5,6.1-2.6,6.5c-0.3,0.1-0.6-0.3-0.8-0.9c-1.4-3.9,1.9-11.2,3.1-11.6c0.2-0.1,0.4,0.1,0.6,0.5
			C62.6,29.5,62.6,31.4,62.1,34.2z M119,26.1c-0.9,0.1-1.5-2.5-0.6-4.9l1-2.1c1.3-2.8,3.1-4.6,3.8-4.4c0.2,0.1,0.3,0.5,0.4,1.1
			c0.1,1.2-0.1,3.1-0.8,4.8C121.5,23.9,120.1,26,119,26.1z M156.5,24.9c-0.4,0-0.5-0.4-0.5-1.1c0-1.2,0.7-3.1,1.8-4.7
			c1.9-2.9,4.5-5.1,5.2-5.1c0.4,0,0.4,0.3,0.4,0.7c0,0.9-0.7,2.7-2.2,5.1C159.4,22.8,157.6,24.9,156.5,24.9z M178.1,17.1
			c-1.2,1.9-2.4,2.7-3.3,2.7c-0.6,0-0.8-0.5-0.8-1c0-0.6,0.3-1.5,1.2-2.5c1.2-1.4,2.3-1.8,3-1.8c0.4,0,0.6,0.4,0.5,0.9
			C178.7,15.9,178.5,16.4,178.1,17.1z"/>
		<path class="st3" d="M216.4,15.7c0.4-2.3-1.2-4.9-4.2-5.7c0.1-0.6,0.1-1.2,0-1.7c-0.2-0.8-0.8-1-1.5-0.3c-0.2,0.3-0.5,0.5-0.8,0.8
			c-0.3-0.1-0.7-0.2-1.1-0.2c-6.3-1.1-13.9,2.3-15.2,9.2c-0.4,2.3,0.5,4.9,4.2,6.3c-0.8,1.1-1.4,2.1-1.9,3s-0.8,1.6-0.9,2.1
			c-0.2,0.9,0,1.6,0.3,2c0.5,0.7,0.8,0.7,1.2,0.1c1.2-1.8,2.9-4,4.6-6.3C209,26.1,215.3,21.8,216.4,15.7z M198.8,22.7
			c-1.6-0.7-2.2-1.9-1.8-3.8c0.8-4.3,6.9-8.4,11.5-8.5C205.6,13.7,201.7,18.7,198.8,22.7z M202.5,23.3c3-3.9,6-7.7,7.7-9.6
			c0.8-0.9,1.3-1.8,1.7-2.6c1.3,0.6,1.7,1.6,1.4,3.2C212.4,19.1,207.3,22.9,202.5,23.3z"/>
		<path class="st3" d="M237.8,32c0.5-0.9,0.6-1.1,0.7-1.4c0.7-2.3,0-3.2-0.5-4.3c-0.4-1.2-1-1.8-2.2-2.1c-0.4-0.1-0.9-0.1-1.4-0.1
			c2.1-1.6,4.8-2.2,7.1-2.6c1.4-0.3,3.1-0.6,3.9-1c1.5-0.8,2.4-2.5,2.5-3.4c0.1-0.9-0.5-1.1-1.2-0.5c-1.7,1.5-3.6,1.9-5.2,2.2
			c-5.3,1-8.4,3.3-13.3,8.7c-0.8,0.9-1.5,1.9-2,2.8c0,0,0,0,0,0c-1.7,2-4.1,3.9-5.3,3.6c-0.4-0.1-0.4-0.4-0.3-1
			c0.6-2.4,4.5-5.4,5.9-7.1c1.4-1.6,1.4-3.2,1-4.1c-0.3-0.6-0.9-0.7-1.5-0.1l-0.9,0.9c-0.1-1-0.7-1.8-2-2.1
			c-1.8-0.4-5.1,0.5-8.9,3.8c-1.7,1.4-2.8,3.2-3.2,4.8c-0.5,2.1,0.2,3.9,2.3,4.4c1.4,0.3,3.3-0.3,4.5-1.1c0,1.4,0.7,2.5,2.5,3
			c1.7,0.4,3.8-0.3,5.2-1.5c0,0.3,0.1,0.6,0.2,0.9c0.6,1.6,1.7,2.5,2.9,2.8C231.7,38.3,236.1,35.1,237.8,32z M219.9,27.8
			c-2.5,2.5-4.6,4.3-5.8,4c-0.4-0.1-0.4-0.5-0.2-1.2c0.3-1.1,1.3-2.8,2.8-4.2c2.5-2.4,5.5-4,6.2-3.9c0.4,0.1,0.4,0.4,0.3,0.8
			C222.9,24.2,221.9,25.8,219.9,27.8z M228.3,35.3c-0.5-0.2-0.7-0.7-0.3-1.7c0.4-1.3,1.6-3,3-4.4c1.7-1.7,4.1-2.9,5.2-2.5
			c0.4,0.1,0.4,0.6,0.2,1.2c-0.5,1.7-2,3.6-3.3,4.9C231,34.8,229.2,35.6,228.3,35.3z"/>
		<path class="st3" d="M292.2,52.4l-1.2,0.5c0.3-1,0-1.9-1.1-2.7c-1.5-1.1-4.9-1.4-9.7,0.3c-0.9,0.3-1.6,0.7-2.3,1.1
			c-0.2,0-0.4,0.1-0.7,0.3c-1.9,1.3-4.8,2.8-5.8,2c-0.9-0.7-0.7-2.7,0.5-5.2c4.1,0.5,6.3-0.3,8.4-1.5c0.4-0.3,0.8-0.6,1-1
			c0.6-1.1,0.2-2.1-1.1-1.7c-3.3,1.2-6.4,1.8-9.4,1.2c-0.2,0-0.3,0-0.5-0.1c1.2-0.7,2-1.2,2.4-1.5c0.7-0.5,1.2-0.9,1.4-1.4
			c0.3-0.4,0.3-0.9,0.4-1.4c0.2-1.1-0.4-1.3-1.3-1c-3.9,1.7-5.7,2.9-7.5,4.4c-0.1,0-0.3,0.1-0.4,0.2c-2.1,1.5-4.9,3-6,2.5
			c-0.4-0.2-0.5-0.6-0.2-1.2c0.6-1.3,2.9-2.9,4.6-4c2-1.4,3.4-2.5,3.9-3.6c0.3-0.7,0.4-1.3,0.3-1.9c-0.1-0.7-0.7-0.9-1.5-0.4
			c-1.9,1-3.8,2.8-7.2,5c-2.9,1.8-5.7,3.2-6.5,2.9c-0.7-0.3-0.1-1.5,1.1-2.5c2.3-2,6.5-4.7,7.1-6c0.2-0.5,0.4-1.1,0.2-1.7
			c-0.2-0.7-0.7-1-1.4-0.7c-2.9,1.6-5.7,3.7-7.4,5.3c-0.1,0-0.3,0.1-0.4,0.3c-1.7,1.6-4.5,3.1-7.2,2.6c1.4-0.5,3.1-1.6,4.6-3.1
			c1.4-1.3,2.6-2.8,3.1-4.3c0.7-1.7,0.4-3.9-1.7-4.7c-0.9-0.3-2.1-0.3-3.1,0c0.2-0.4,0.3-0.9,0.1-1.4c-0.1-0.5-0.5-0.8-1.4-0.3
			c-3.2,2-12.7,10.4-15,13.2c-0.7,0.8-1,1.5-1.2,2c-0.3,0.7-0.3,1.2,0,2.1c0.2,0.5,0.6,0.6,1.1,0c2.7-2.8,5.2-5.1,7.8-7.3
			c0.1,2.1,1.4,3.7,4.1,4.7c2.1,0.8,4.4,1.1,6.5,0.3c-0.1,1,0.3,1.9,1.4,2.4c1.7,0.8,3.6,0.5,5.3-0.3c-0.6,1.5,0,2.9,1.9,3.8
			c1.1,0.5,2.5,0.5,3.8,0.2c0,0.3,0,0.6,0,0.8c0.1,0.7,0.7,0.8,1.2,0.5c2.5-1.9,4.5-3.1,5.9-4.1c-2.5,4.2-1.6,7.1,0.7,8.5
			c1.6,1,3.3,0.8,4.6,0.4c-0.3,1.3,0,2.5,1.3,3.4c1.2,0.8,3.2,0.9,4.6,0.6c-0.5,1.3-0.2,2.6,1.2,3.7c1.8,1.3,4.8,1,6.7,0
			c1-0.6,1.4-1.5,1.5-1.8c0.1-0.8-0.1-1-0.9-0.6c-2.3,1.2-5.2,2.2-6.3,1.4c-0.3-0.2-0.2-0.6,0.1-1c1.4-2,6.2-3.4,8.1-4.5
			c1.9-1,2.5-2.5,2.4-3.4C293.5,52.4,292.9,52.1,292.2,52.4z M241.5,39.3c-0.9-0.3-0.2-2.9,1.7-4.6l1.8-1.4c2.4-1.9,4.8-2.8,5.3-2.3
			c0.1,0.1,0.1,0.6-0.2,1.2c-0.4,1.1-1.5,2.7-2.9,4C244.8,38.5,242.6,39.7,241.5,39.3z M288.9,53.1c-0.5,0.8-2.1,1.8-4.7,3
			c-3.2,1.5-5.8,2.3-6.8,1.6c-0.3-0.2-0.2-0.6,0.2-1.2c0.7-0.9,2.3-2.2,4.1-2.9c3.2-1.4,6.6-1.8,7.2-1.3
			C289.2,52.5,289.1,52.7,288.9,53.1z"/>
	</g>
</g>
</svg>
